<svg xmlns="http://www.w3.org/2000/svg" width="32" height="32" viewBox="0 0 8.467 8.467"><path fill-rule="evenodd" d="M 16 1 C 13.996638 1 12.114439 1.5531016 10.496094 2.4960938 A 1.0001 1.0001 0 1 0 11.503906 4.2226562 C 12.834373 3.4473996 14.363082 3 16 3 C 20.95352 3 25 7.0464756 25 12 C 25 14.348598 23.867975 16.507414 22.298828 18.599609 C 20.732657 20.687836 18.708677 22.705582 16.707031 24.707031 C 16.308287 25.105734 15.691713 25.105734 15.292969 24.707031 C 13.291323 22.705582 11.267344 20.687836 9.7011719 18.599609 C 8.1320247 16.507414 7 14.348598 7 12 C 7 10.363087 7.4473867 8.8343755 8.2226562 7.5039062 A 1.0001 1.0001 0 1 0 6.4960938 6.4960938 C 5.5530744 8.1144496 5 9.9966236 5 12 C 5 14.984768 6.4127563 17.549707 8.0996094 19.798828 C 9.7894384 22.051956 11.880314 24.122706 13.878906 26.121094 C 15.042045 27.284092 16.957956 27.284092 18.121094 26.121094 C 20.119686 24.122706 22.210562 22.051956 23.900391 19.798828 C 25.587244 17.549707 27 14.984768 27 12 C 27 5.9551748 22.044796 1 16 1 z M 15.996094 6.9980469 C 13.246521 6.9980469 10.998056 9.2523846 10.998047 12.001953 C 10.998029 14.751559 13.246503 17 15.996094 17 C 18.745685 17 21.001971 14.751559 21.001953 12.001953 C 21.001945 9.2523846 18.745667 6.9980469 15.996094 6.9980469 z M 15.996094 8.9980469 C 17.664789 8.9980469 19.001948 10.333292 19.001953 12.001953 C 19.001963 13.67069 17.6648 15 15.996094 15 C 14.327387 15 12.999989 13.67069 13 12.001953 C 13.000005 10.333292 14.327399 8.9980469 15.996094 8.9980469 z M 11.902344 29.001953 A 1.0001001 1.0001001 0 0 0 11.900391 29.003906 A 1.0015858 1.0015858 0 0 0 12.003906 31.003906 L 19.998047 31.003906 A 1.000252 1.000252 0 1 0 19.998047 29.003906 L 12.003906 29.003906 A 1.0001001 1.0001001 0 0 0 11.902344 29.001953 z " color="#000" font-family="sans-serif" font-weight="400" overflow="visible" paint-order="stroke fill markers" transform="scale(.26458)" style="line-height:normal;font-variant-ligatures:normal;font-variant-position:normal;font-variant-caps:normal;font-variant-numeric:normal;font-variant-alternates:normal;font-feature-settings:normal;text-indent:0;text-align:start;text-decoration-line:none;text-decoration-style:solid;text-decoration-color:#000;text-transform:none;text-orientation:mixed;shape-padding:0;isolation:auto;mix-blend-mode:normal"/></svg>